<?xml version="1.0" encoding="UTF-8"?>
<svg id="Layer_1" xmlns="http://www.w3.org/2000/svg" version="1.1" viewBox="0 0 297.3 47.31">
  <defs>
    <style>
      .st0 {
        stroke-linejoin: round;
        stroke-width: 5.8px;
      }

      .st0, .st1 {
        fill: none;
        stroke: #3b82f6;
        stroke-linecap: round;
      }

      .st1 {
        stroke-miterlimit: 2.32;
        stroke-width: 6.67px;
      }
    </style>
  </defs>
  <g>
    <path class="st1" d="M35.52,11.91c-6.09-7.85-17.38-9.27-25.23-3.19S1.02,26.1,7.11,33.95c6.09,7.85,17.38,9.27,25.23,3.19,1.19-.92,2.26-2,3.19-3.19"/>
    <path class="st0" d="M14.99,32.21l6.38-18.56,6.38,18.56"/>
  </g>
  <g transform="translate(54.37 35.93)" fill="#0a0a0a"><path d="M718 1235 303 0H12L556 1456H742ZM1065 0 648 1235 623 1456H810L1357 0ZM1046 541V324H265V541Z" transform="translate(0.000 0) scale(0.020508 -0.020508)"/><path d="M563 188Q619 188 663.0 210.0Q707 232 733.5 272.0Q760 312 762 365H1011Q1009 255 949.0 168.0Q889 81 789.5 30.5Q690 -20 567 -20Q442 -20 349.0 22.0Q256 64 194.5 139.0Q133 214 102.5 313.0Q72 412 72 525V557Q72 670 102.5 769.0Q133 868 194.5 943.0Q256 1018 349.0 1060.0Q442 1102 566 1102Q697 1102 796.5 1051.0Q896 1000 952.5 907.0Q1009 814 1011 688H762Q760 746 736.0 792.0Q712 838 668.0 866.0Q624 894 561 894Q494 894 449.5 866.0Q405 838 380.5 789.5Q356 741 346.5 681.5Q337 622 337 557V525Q337 459 346.5 399.0Q356 339 380.5 291.5Q405 244 449.5 216.0Q494 188 563 188Z" transform="translate(26.774 0) scale(0.020508 -0.020508)"/><path d="M563 188Q619 188 663.0 210.0Q707 232 733.5 272.0Q760 312 762 365H1011Q1009 255 949.0 168.0Q889 81 789.5 30.5Q690 -20 567 -20Q442 -20 349.0 22.0Q256 64 194.5 139.0Q133 214 102.5 313.0Q72 412 72 525V557Q72 670 102.5 769.0Q133 868 194.5 943.0Q256 1018 349.0 1060.0Q442 1102 566 1102Q697 1102 796.5 1051.0Q896 1000 952.5 907.0Q1009 814 1011 688H762Q760 746 736.0 792.0Q712 838 668.0 866.0Q624 894 561 894Q494 894 449.5 866.0Q405 838 380.5 789.5Q356 741 346.5 681.5Q337 622 337 557V525Q337 459 346.5 399.0Q356 339 380.5 291.5Q405 244 449.5 216.0Q494 188 563 188Z" transform="translate(47.417 0) scale(0.020508 -0.020508)"/><path d="M605 -20Q482 -20 384.0 20.0Q286 60 217.5 131.5Q149 203 112.5 298.5Q76 394 76 504V544Q76 669 112.0 771.5Q148 874 214.0 948.0Q280 1022 372.0 1062.0Q464 1102 575 1102Q690 1102 778.0 1063.5Q866 1025 925.0 955.0Q984 885 1014.0 787.5Q1044 690 1044 572V461H196V643H784V663Q782 726 760.0 778.5Q738 831 692.0 862.5Q646 894 573 894Q514 894 470.5 868.5Q427 843 398.5 796.5Q370 750 356.0 686.0Q342 622 342 544V504Q342 436 360.5 378.0Q379 320 415.5 277.5Q452 235 503.5 211.5Q555 188 621 188Q704 188 771.5 220.5Q839 253 889 317L1022 179Q988 129 930.5 83.0Q873 37 792.0 8.5Q711 -20 605 -20Z" transform="translate(68.059 0) scale(0.020508 -0.020508)"/><path d="M714 296Q714 330 696.0 357.0Q678 384 628.5 406.5Q579 429 484 449Q400 467 329.0 494.0Q258 521 207.0 559.5Q156 598 127.5 650.5Q99 703 99 772Q99 839 128.0 898.5Q157 958 212.0 1003.5Q267 1049 346.0 1075.5Q425 1102 524 1102Q662 1102 761.5 1057.0Q861 1012 914.0 933.5Q967 855 967 757H703Q703 800 683.5 835.0Q664 870 624.0 891.5Q584 913 523 913Q468 913 430.5 895.0Q393 877 374.0 848.0Q355 819 355 784Q355 758 365.5 737.5Q376 717 400.0 700.0Q424 683 465.5 669.0Q507 655 568 642Q689 618 779.5 578.5Q870 539 921.0 474.0Q972 409 972 308Q972 236 941.0 176.5Q910 117 851.0 73.0Q792 29 710.0 4.5Q628 -20 525 -20Q376 -20 273.0 33.5Q170 87 117.0 169.5Q64 252 64 341H317Q320 278 351.0 240.0Q382 202 429.5 185.5Q477 169 530 169Q590 169 631.0 185.5Q672 202 693.0 230.5Q714 259 714 296Z" transform="translate(89.398 0) scale(0.020508 -0.020508)"/><path d="M714 296Q714 330 696.0 357.0Q678 384 628.5 406.5Q579 429 484 449Q400 467 329.0 494.0Q258 521 207.0 559.5Q156 598 127.5 650.5Q99 703 99 772Q99 839 128.0 898.5Q157 958 212.0 1003.5Q267 1049 346.0 1075.5Q425 1102 524 1102Q662 1102 761.5 1057.0Q861 1012 914.0 933.5Q967 855 967 757H703Q703 800 683.5 835.0Q664 870 624.0 891.5Q584 913 523 913Q468 913 430.5 895.0Q393 877 374.0 848.0Q355 819 355 784Q355 758 365.5 737.5Q376 717 400.0 700.0Q424 683 465.5 669.0Q507 655 568 642Q689 618 779.5 578.5Q870 539 921.0 474.0Q972 409 972 308Q972 236 941.0 176.5Q910 117 851.0 73.0Q792 29 710.0 4.5Q628 -20 525 -20Q376 -20 273.0 33.5Q170 87 117.0 169.5Q64 252 64 341H317Q320 278 351.0 240.0Q382 202 429.5 185.5Q477 169 530 169Q590 169 631.0 185.5Q672 202 693.0 230.5Q714 259 714 296Z" transform="translate(109.733 0) scale(0.020508 -0.020508)"/><path d="M991 479H1266Q1255 333 1185.0 220.5Q1115 108 990.0 44.0Q865 -20 687 -20Q550 -20 440.5 28.5Q331 77 253.5 167.5Q176 258 135.0 385.5Q94 513 94 672V783Q94 942 136.0 1070.0Q178 1198 256.5 1288.5Q335 1379 445.5 1428.0Q556 1477 693 1477Q871 1477 994.0 1411.5Q1117 1346 1185.0 1232.0Q1253 1118 1267 970H992Q984 1062 952.5 1126.0Q921 1190 858.5 1223.5Q796 1257 693 1257Q613 1257 552.5 1227.0Q492 1197 452.0 1137.5Q412 1078 392.0 989.5Q372 901 372 785V672Q372 561 390.0 473.0Q408 385 446.0 324.0Q484 263 544.0 231.0Q604 199 687 199Q788 199 851.5 231.0Q915 263 948.5 325.0Q982 387 991 479Z" transform="translate(130.068 0) scale(0.020508 -0.020508)"/><path d="M378 1536V0H113V1536ZM336 580H258Q258 693 288.0 788.0Q318 883 373.0 953.5Q428 1024 504.5 1063.0Q581 1102 674 1102Q754 1102 819.5 1079.5Q885 1057 932.0 1008.0Q979 959 1004.5 880.5Q1030 802 1030 690V0H764V692Q764 767 742.0 810.5Q720 854 679.5 873.0Q639 892 580 892Q516 892 470.0 867.5Q424 843 394.5 800.0Q365 757 350.5 701.0Q336 645 336 580Z" transform="translate(156.268 0) scale(0.020508 -0.020508)"/><path d="M605 -20Q482 -20 384.0 20.0Q286 60 217.5 131.5Q149 203 112.5 298.5Q76 394 76 504V544Q76 669 112.0 771.5Q148 874 214.0 948.0Q280 1022 372.0 1062.0Q464 1102 575 1102Q690 1102 778.0 1063.5Q866 1025 925.0 955.0Q984 885 1014.0 787.5Q1044 690 1044 572V461H196V643H784V663Q782 726 760.0 778.5Q738 831 692.0 862.5Q646 894 573 894Q514 894 470.5 868.5Q427 843 398.5 796.5Q370 750 356.0 686.0Q342 622 342 544V504Q342 436 360.5 378.0Q379 320 415.5 277.5Q452 235 503.5 211.5Q555 188 621 188Q704 188 771.5 220.5Q839 253 889 317L1022 179Q988 129 930.5 83.0Q873 37 792.0 8.5Q711 -20 605 -20Z" transform="translate(178.448 0) scale(0.020508 -0.020508)"/><path d="M563 188Q619 188 663.0 210.0Q707 232 733.5 272.0Q760 312 762 365H1011Q1009 255 949.0 168.0Q889 81 789.5 30.5Q690 -20 567 -20Q442 -20 349.0 22.0Q256 64 194.5 139.0Q133 214 102.5 313.0Q72 412 72 525V557Q72 670 102.5 769.0Q133 868 194.5 943.0Q256 1018 349.0 1060.0Q442 1102 566 1102Q697 1102 796.5 1051.0Q896 1000 952.5 907.0Q1009 814 1011 688H762Q760 746 736.0 792.0Q712 838 668.0 866.0Q624 894 561 894Q494 894 449.5 866.0Q405 838 380.5 789.5Q356 741 346.5 681.5Q337 622 337 557V525Q337 459 346.5 399.0Q356 339 380.5 291.5Q405 244 449.5 216.0Q494 188 563 188Z" transform="translate(199.788 0) scale(0.020508 -0.020508)"/><path d="M383 1537V0H119V1537ZM1061 1082 590 553 335 294 251 499 448 747 742 1082ZM791 0 456 504 632 675 1097 0Z" transform="translate(220.430 0) scale(0.020508 -0.020508)"/></g>
</svg>
